<svg height="512" viewBox="0 0 56 60" width="512" xmlns="http://www.w3.org/2000/svg"><g id="077---Down-Arrow"><path id="Shape" d="m27.866 43.4-3.746-5c-.2143594-.2858125-.5649147-.4355547-.9196152-.3928203-.3547006.0427344-.6596589.2714531-.8.6-.1403412.3285469-.0947442.7070078.1196152.9928203l3.746 5c.3313708.4418278.9581722.5313708 1.4.2s.5313708-.9581722.2-1.4z"/><path id="Shape" d="m11.386 21.4c-.3313709-.4418278-.9581722-.5313708-1.39999998-.2-.4418278.3313709-.53137085.9581722-.20000002 1.4l8.989 12c.3313708.4418278.9581722.5313708 1.4.2s.5313708-.9581722.2-1.4z"/><path id="Shape" d="m26 20c.5522847 0 1-.4477153 1-1v-3c0-.5522847-.4477153-1-1-1s-1 .4477153-1 1v3c0 .5522847.4477153 1 1 1z"/><path id="Shape" d="m26 13c.5522847 0 1-.4477153 1-1v-7c0-.55228475-.4477153-1-1-1s-1 .44771525-1 1v7c0 .5522847.4477153 1 1 1z"/><path id="Shape" d="m.4 24.489 25.982 34.689c.3748948.5159899.9734109.8222318 1.6112094.8244052.6377986.0021734 1.2383879-.2999823 1.6167906-.8134052l25.99-34.699c.3287957-.4458638.4721531-1.0017323.4-1.551v-7.649c-.0038506-.4418702-.1485275-.8709966-.413-1.225-.5241014-.7036206-1.4492316-.9776579-2.272-.673l-18.315 6.457v-17.835c.0027687-1.10798512-.8920225-2.00903985-2-2.014h-10c-1.1072883.00660366-2.0011204.90669255-2 2.014v17.842l-18.308-6.456c-.61672587-.2248676-1.30453641-.1327768-1.84038569.2464089s-.85150845.9971852-.84461431 1.6535911c.041 9.071-.079 8.562.393 9.189zm1.634-1.155c0-1.926-.011-3.9-.015-4.687 26.121 34.869 24.435 32.753 24.981 33.071v4.949zm26.966 33.31v-4.925c.565-.329-1.275 1.979 25-33.1 0 5.09-.005 4.414.01 4.514.026.185 1.795-2.252-25.01 33.511zm-8.688-34.906c.6152431.2254112 1.3018807.1351597 1.8379768-.2415834.536096-.376743.8536506-.9921906.8500232-1.6474166v-17.842h10v17.842c-.0037083.6528336.3114436 1.2663871.8442548 1.6436373.5328111.3772502 1.2162102.4707081 1.8307452.2503627l18.311-6.467c.1.085.435-.552-25.99 34.712l-25.982-34.712z"/></g></svg>